<mxfile host="Electron" modified="2024-03-09T15:24:15.524Z" agent="Mozilla/5.0 (Windows NT 10.0; Win64; x64) AppleWebKit/537.36 (KHTML, like Gecko) draw.io/23.1.5 Chrome/120.0.6099.109 Electron/28.1.0 Safari/537.36" etag="-wGyHVICw3yMJryH5TQh" version="23.1.5" type="device">
  <diagram name="Page-1" id="krlLLVuHp6nMf8_PuCLu">
    <mxGraphModel dx="1468" dy="1023" grid="1" gridSize="10" guides="1" tooltips="1" connect="1" arrows="1" fold="1" page="1" pageScale="1" pageWidth="850" pageHeight="1100" math="0" shadow="0">
      <root>
        <mxCell id="0" />
        <mxCell id="1" parent="0" />
        <mxCell id="X0nSEtPHlRPj0N4h6ZsS-1" style="edgeStyle=orthogonalEdgeStyle;rounded=0;orthogonalLoop=1;jettySize=auto;html=1;entryX=0.5;entryY=0;entryDx=0;entryDy=0;" edge="1" parent="1" source="wE5hzmVtrxH4fMtxzaI--2" target="wE5hzmVtrxH4fMtxzaI--3">
          <mxGeometry relative="1" as="geometry" />
        </mxCell>
        <mxCell id="wE5hzmVtrxH4fMtxzaI--2" value="Начало" style="rounded=1;whiteSpace=wrap;html=1;arcSize=50;fontFamily=GOST Type B;fontStyle=2;fontSize=41;" parent="1" vertex="1">
          <mxGeometry x="80" y="320" width="140" height="70" as="geometry" />
        </mxCell>
        <mxCell id="wE5hzmVtrxH4fMtxzaI--12" style="edgeStyle=orthogonalEdgeStyle;rounded=0;orthogonalLoop=1;jettySize=auto;html=1;fontFamily=GOST Type B;fontStyle=2" parent="1" source="wE5hzmVtrxH4fMtxzaI--3" target="wE5hzmVtrxH4fMtxzaI--4" edge="1">
          <mxGeometry relative="1" as="geometry" />
        </mxCell>
        <mxCell id="wE5hzmVtrxH4fMtxzaI--3" value="Чтение указанной последовательности тестов" style="rounded=0;whiteSpace=wrap;html=1;fontFamily=GOST Type B;fontStyle=2;fontSize=14;" parent="1" vertex="1">
          <mxGeometry x="85" y="410" width="130" height="60" as="geometry" />
        </mxCell>
        <mxCell id="X0nSEtPHlRPj0N4h6ZsS-14" style="edgeStyle=orthogonalEdgeStyle;rounded=0;orthogonalLoop=1;jettySize=auto;html=1;entryX=0.5;entryY=0;entryDx=0;entryDy=0;" edge="1" parent="1" source="wE5hzmVtrxH4fMtxzaI--4" target="X0nSEtPHlRPj0N4h6ZsS-12">
          <mxGeometry relative="1" as="geometry" />
        </mxCell>
        <mxCell id="wE5hzmVtrxH4fMtxzaI--4" value="Чтение конфигурации тестов" style="rounded=0;whiteSpace=wrap;html=1;fontFamily=GOST Type B;fontStyle=2;fontSize=17;" parent="1" vertex="1">
          <mxGeometry x="90" y="490" width="120" height="60" as="geometry" />
        </mxCell>
        <mxCell id="wE5hzmVtrxH4fMtxzaI--42" style="edgeStyle=orthogonalEdgeStyle;rounded=0;orthogonalLoop=1;jettySize=auto;html=1;fontFamily=GOST Type B;fontStyle=2;entryX=0.5;entryY=0;entryDx=0;entryDy=0;" parent="1" source="wE5hzmVtrxH4fMtxzaI--5" target="wE5hzmVtrxH4fMtxzaI--51" edge="1">
          <mxGeometry relative="1" as="geometry">
            <mxPoint x="410" y="750" as="targetPoint" />
            <Array as="points">
              <mxPoint x="550" y="250" />
              <mxPoint x="550" y="730" />
              <mxPoint x="415" y="730" />
            </Array>
          </mxGeometry>
        </mxCell>
        <mxCell id="X0nSEtPHlRPj0N4h6ZsS-3" style="edgeStyle=orthogonalEdgeStyle;rounded=0;orthogonalLoop=1;jettySize=auto;html=1;" edge="1" parent="1" source="wE5hzmVtrxH4fMtxzaI--5" target="X0nSEtPHlRPj0N4h6ZsS-2">
          <mxGeometry relative="1" as="geometry" />
        </mxCell>
        <mxCell id="wE5hzmVtrxH4fMtxzaI--5" value="for i = 0 to n&lt;br style=&quot;font-size: 15px;&quot;&gt;n - кол-во повторений последовательности" style="shape=hexagon;perimeter=hexagonPerimeter2;whiteSpace=wrap;html=1;fixedSize=1;fontFamily=GOST Type B;fontStyle=2;fontSize=15;" parent="1" vertex="1">
          <mxGeometry x="333" y="210" width="165" height="80" as="geometry" />
        </mxCell>
        <mxCell id="wE5hzmVtrxH4fMtxzaI--20" style="edgeStyle=orthogonalEdgeStyle;rounded=0;orthogonalLoop=1;jettySize=auto;html=1;entryX=0;entryY=0.5;entryDx=0;entryDy=0;fontFamily=GOST Type B;fontStyle=2" parent="1" source="wE5hzmVtrxH4fMtxzaI--6" target="wE5hzmVtrxH4fMtxzaI--5" edge="1">
          <mxGeometry relative="1" as="geometry">
            <Array as="points">
              <mxPoint x="530" y="430" />
              <mxPoint x="530" y="710" />
              <mxPoint x="270" y="710" />
              <mxPoint x="270" y="250" />
            </Array>
          </mxGeometry>
        </mxCell>
        <mxCell id="X0nSEtPHlRPj0N4h6ZsS-11" style="edgeStyle=orthogonalEdgeStyle;rounded=0;orthogonalLoop=1;jettySize=auto;html=1;entryX=0.5;entryY=0;entryDx=0;entryDy=0;" edge="1" parent="1" source="wE5hzmVtrxH4fMtxzaI--6" target="wE5hzmVtrxH4fMtxzaI--7">
          <mxGeometry relative="1" as="geometry" />
        </mxCell>
        <mxCell id="wE5hzmVtrxH4fMtxzaI--6" value="for j = 0 to m&lt;br style=&quot;font-size: 16px;&quot;&gt;m - кол-во ЯП в последовательности" style="shape=hexagon;perimeter=hexagonPerimeter2;whiteSpace=wrap;html=1;fixedSize=1;fontFamily=GOST Type B;fontStyle=2;fontSize=16;" parent="1" vertex="1">
          <mxGeometry x="333" y="390" width="165" height="80" as="geometry" />
        </mxCell>
        <mxCell id="wE5hzmVtrxH4fMtxzaI--19" style="edgeStyle=orthogonalEdgeStyle;rounded=0;orthogonalLoop=1;jettySize=auto;html=1;entryX=0;entryY=0.5;entryDx=0;entryDy=0;fontFamily=GOST Type B;fontStyle=2" parent="1" source="wE5hzmVtrxH4fMtxzaI--7" target="wE5hzmVtrxH4fMtxzaI--6" edge="1">
          <mxGeometry relative="1" as="geometry">
            <Array as="points">
              <mxPoint x="510" y="530" />
              <mxPoint x="510" y="690" />
              <mxPoint x="290" y="690" />
              <mxPoint x="290" y="430" />
            </Array>
          </mxGeometry>
        </mxCell>
        <mxCell id="X0nSEtPHlRPj0N4h6ZsS-5" style="edgeStyle=orthogonalEdgeStyle;rounded=0;orthogonalLoop=1;jettySize=auto;html=1;entryX=0.5;entryY=0;entryDx=0;entryDy=0;" edge="1" parent="1" source="wE5hzmVtrxH4fMtxzaI--7" target="wE5hzmVtrxH4fMtxzaI--10">
          <mxGeometry relative="1" as="geometry" />
        </mxCell>
        <mxCell id="wE5hzmVtrxH4fMtxzaI--7" value="for k = 0 to l&lt;br style=&quot;font-size: 17px;&quot;&gt;l - кол-во тестов для текущего ЯП" style="shape=hexagon;perimeter=hexagonPerimeter2;whiteSpace=wrap;html=1;fixedSize=1;fontFamily=GOST Type B;fontStyle=2;fontSize=17;" parent="1" vertex="1">
          <mxGeometry x="333.5" y="490" width="165" height="80" as="geometry" />
        </mxCell>
        <mxCell id="wE5hzmVtrxH4fMtxzaI--17" style="edgeStyle=orthogonalEdgeStyle;rounded=0;orthogonalLoop=1;jettySize=auto;html=1;entryX=0;entryY=0.5;entryDx=0;entryDy=0;fontFamily=GOST Type B;fontStyle=2" parent="1" source="wE5hzmVtrxH4fMtxzaI--10" target="wE5hzmVtrxH4fMtxzaI--7" edge="1">
          <mxGeometry relative="1" as="geometry">
            <Array as="points">
              <mxPoint x="416" y="670" />
              <mxPoint x="314" y="670" />
              <mxPoint x="314" y="530" />
            </Array>
          </mxGeometry>
        </mxCell>
        <mxCell id="wE5hzmVtrxH4fMtxzaI--10" value="Выполнение теста" style="shape=process;whiteSpace=wrap;html=1;backgroundOutline=1;fontFamily=GOST Type B;fontStyle=2;fontSize=18;" parent="1" vertex="1">
          <mxGeometry x="355.5" y="590" width="120" height="60" as="geometry" />
        </mxCell>
        <mxCell id="X0nSEtPHlRPj0N4h6ZsS-7" style="edgeStyle=orthogonalEdgeStyle;rounded=0;orthogonalLoop=1;jettySize=auto;html=1;entryX=0.5;entryY=0;entryDx=0;entryDy=0;" edge="1" parent="1" source="wE5hzmVtrxH4fMtxzaI--21" target="wE5hzmVtrxH4fMtxzaI--23">
          <mxGeometry relative="1" as="geometry" />
        </mxCell>
        <mxCell id="wE5hzmVtrxH4fMtxzaI--21" value="Выполнение &lt;br style=&quot;font-size: 20px;&quot;&gt;теста&lt;br style=&quot;font-size: 20px;&quot;&gt;Начало" style="rounded=1;whiteSpace=wrap;html=1;arcSize=50;fontFamily=GOST Type B;fontStyle=3;fontSize=20;" parent="1" vertex="1">
          <mxGeometry x="870" y="190" width="140" height="70" as="geometry" />
        </mxCell>
        <mxCell id="X0nSEtPHlRPj0N4h6ZsS-6" style="edgeStyle=orthogonalEdgeStyle;rounded=0;orthogonalLoop=1;jettySize=auto;html=1;entryX=0.5;entryY=0;entryDx=0;entryDy=0;" edge="1" parent="1" source="wE5hzmVtrxH4fMtxzaI--22" target="wE5hzmVtrxH4fMtxzaI--31">
          <mxGeometry relative="1" as="geometry" />
        </mxCell>
        <mxCell id="wE5hzmVtrxH4fMtxzaI--22" value="Выполнение команды запуска теста" style="rounded=0;whiteSpace=wrap;html=1;fontFamily=GOST Type B;fontStyle=2;fontSize=17;" parent="1" vertex="1">
          <mxGeometry x="880" y="440" width="120" height="60" as="geometry" />
        </mxCell>
        <mxCell id="X0nSEtPHlRPj0N4h6ZsS-8" style="edgeStyle=orthogonalEdgeStyle;rounded=0;orthogonalLoop=1;jettySize=auto;html=1;" edge="1" parent="1" source="wE5hzmVtrxH4fMtxzaI--23" target="wE5hzmVtrxH4fMtxzaI--30">
          <mxGeometry relative="1" as="geometry" />
        </mxCell>
        <mxCell id="wE5hzmVtrxH4fMtxzaI--23" value="&lt;font style=&quot;font-size: 19px;&quot;&gt;Запуск Docker контейнера&lt;/font&gt;" style="rounded=0;whiteSpace=wrap;html=1;fontFamily=GOST Type B;fontStyle=2;fontSize=19;" parent="1" vertex="1">
          <mxGeometry x="880" y="280" width="120" height="60" as="geometry" />
        </mxCell>
        <mxCell id="X0nSEtPHlRPj0N4h6ZsS-9" style="edgeStyle=orthogonalEdgeStyle;rounded=0;orthogonalLoop=1;jettySize=auto;html=1;" edge="1" parent="1" source="wE5hzmVtrxH4fMtxzaI--30" target="wE5hzmVtrxH4fMtxzaI--22">
          <mxGeometry relative="1" as="geometry" />
        </mxCell>
        <mxCell id="wE5hzmVtrxH4fMtxzaI--30" value="Запуск утилиты time" style="rounded=0;whiteSpace=wrap;html=1;fontFamily=GOST Type B;fontStyle=2;fontSize=19;" parent="1" vertex="1">
          <mxGeometry x="880" y="360" width="120" height="60" as="geometry" />
        </mxCell>
        <mxCell id="wE5hzmVtrxH4fMtxzaI--37" style="edgeStyle=orthogonalEdgeStyle;rounded=0;orthogonalLoop=1;jettySize=auto;html=1;entryX=0.5;entryY=0;entryDx=0;entryDy=0;fontFamily=GOST Type B;fontStyle=2" parent="1" source="wE5hzmVtrxH4fMtxzaI--31" target="wE5hzmVtrxH4fMtxzaI--32" edge="1">
          <mxGeometry relative="1" as="geometry" />
        </mxCell>
        <mxCell id="wE5hzmVtrxH4fMtxzaI--31" value="Обработка результатов выполнения" style="rounded=0;whiteSpace=wrap;html=1;fontFamily=GOST Type B;fontStyle=2;fontSize=18;" parent="1" vertex="1">
          <mxGeometry x="880" y="520" width="120" height="60" as="geometry" />
        </mxCell>
        <mxCell id="wE5hzmVtrxH4fMtxzaI--39" style="edgeStyle=orthogonalEdgeStyle;rounded=0;orthogonalLoop=1;jettySize=auto;html=1;fontFamily=GOST Type B;fontStyle=2" parent="1" source="wE5hzmVtrxH4fMtxzaI--32" target="wE5hzmVtrxH4fMtxzaI--33" edge="1">
          <mxGeometry relative="1" as="geometry" />
        </mxCell>
        <mxCell id="wE5hzmVtrxH4fMtxzaI--32" value="Сохранение результатов" style="rounded=0;whiteSpace=wrap;html=1;fontFamily=GOST Type B;fontStyle=2;fontSize=20;" parent="1" vertex="1">
          <mxGeometry x="880" y="600" width="120" height="60" as="geometry" />
        </mxCell>
        <mxCell id="wE5hzmVtrxH4fMtxzaI--33" value="Выполнение&lt;br style=&quot;font-size: 20px;&quot;&gt;теста&lt;br style=&quot;font-size: 20px;&quot;&gt;Конец" style="rounded=1;whiteSpace=wrap;html=1;arcSize=50;fontFamily=GOST Type B;fontStyle=3;fontSize=20;" parent="1" vertex="1">
          <mxGeometry x="870" y="680" width="140" height="70" as="geometry" />
        </mxCell>
        <mxCell id="wE5hzmVtrxH4fMtxzaI--44" style="edgeStyle=orthogonalEdgeStyle;rounded=0;orthogonalLoop=1;jettySize=auto;html=1;entryX=0.5;entryY=0;entryDx=0;entryDy=0;fontFamily=GOST Type B;fontStyle=2" parent="1" source="wE5hzmVtrxH4fMtxzaI--41" target="wE5hzmVtrxH4fMtxzaI--43" edge="1">
          <mxGeometry relative="1" as="geometry" />
        </mxCell>
        <mxCell id="wE5hzmVtrxH4fMtxzaI--48" style="edgeStyle=orthogonalEdgeStyle;rounded=0;orthogonalLoop=1;jettySize=auto;html=1;fontFamily=GOST Type B;fontStyle=2" parent="1" source="wE5hzmVtrxH4fMtxzaI--41" edge="1">
          <mxGeometry relative="1" as="geometry">
            <mxPoint x="680" y="540" as="targetPoint" />
            <Array as="points">
              <mxPoint x="834.5" y="400" />
              <mxPoint x="834.5" y="540" />
            </Array>
          </mxGeometry>
        </mxCell>
        <mxCell id="wE5hzmVtrxH4fMtxzaI--41" value="Построить &lt;br style=&quot;font-size: 14px;&quot;&gt;график&lt;br style=&quot;font-size: 14px;&quot;&gt;сравнения?" style="rhombus;whiteSpace=wrap;html=1;fontFamily=GOST Type B;fontStyle=2;fontSize=14;" parent="1" vertex="1">
          <mxGeometry x="600" y="360" width="160" height="80" as="geometry" />
        </mxCell>
        <mxCell id="wE5hzmVtrxH4fMtxzaI--46" style="edgeStyle=orthogonalEdgeStyle;rounded=0;orthogonalLoop=1;jettySize=auto;html=1;entryX=0.5;entryY=0;entryDx=0;entryDy=0;fontFamily=GOST Type B;fontStyle=2" parent="1" source="wE5hzmVtrxH4fMtxzaI--43" target="wE5hzmVtrxH4fMtxzaI--45" edge="1">
          <mxGeometry relative="1" as="geometry" />
        </mxCell>
        <mxCell id="wE5hzmVtrxH4fMtxzaI--43" value="Построение графика сравнения результатов тестов" style="rounded=0;whiteSpace=wrap;html=1;fontFamily=GOST Type B;fontStyle=2;fontSize=14;" parent="1" vertex="1">
          <mxGeometry x="614.5" y="460" width="130" height="60" as="geometry" />
        </mxCell>
        <mxCell id="wE5hzmVtrxH4fMtxzaI--45" value="Конец" style="rounded=1;whiteSpace=wrap;html=1;arcSize=50;fontFamily=GOST Type B;fontStyle=2;fontSize=41;" parent="1" vertex="1">
          <mxGeometry x="609.5" y="560" width="140" height="70" as="geometry" />
        </mxCell>
        <mxCell id="wE5hzmVtrxH4fMtxzaI--49" value="нет&lt;br style=&quot;font-size: 14px;&quot;&gt;" style="text;html=1;align=center;verticalAlign=middle;resizable=0;points=[];autosize=1;strokeColor=none;fillColor=none;fontFamily=GOST Type B;fontStyle=2;fontSize=14;" parent="1" vertex="1">
          <mxGeometry x="744.5" y="370" width="50" height="30" as="geometry" />
        </mxCell>
        <mxCell id="wE5hzmVtrxH4fMtxzaI--50" value="да" style="text;html=1;align=center;verticalAlign=middle;resizable=0;points=[];autosize=1;strokeColor=none;fillColor=none;fontFamily=GOST Type B;fontStyle=2;fontSize=14;" parent="1" vertex="1">
          <mxGeometry x="674.5" y="430" width="40" height="30" as="geometry" />
        </mxCell>
        <mxCell id="wE5hzmVtrxH4fMtxzaI--51" value="&lt;font face=&quot;GOST Type B&quot; style=&quot;font-size: 37px;&quot;&gt;&lt;i style=&quot;font-size: 37px;&quot;&gt;Б&lt;/i&gt;&lt;/font&gt;" style="ellipse;whiteSpace=wrap;html=1;aspect=fixed;fontSize=37;" parent="1" vertex="1">
          <mxGeometry x="390" y="750" width="50" height="50" as="geometry" />
        </mxCell>
        <mxCell id="wE5hzmVtrxH4fMtxzaI--54" style="edgeStyle=orthogonalEdgeStyle;rounded=0;orthogonalLoop=1;jettySize=auto;html=1;entryX=0.5;entryY=0;entryDx=0;entryDy=0;" parent="1" source="wE5hzmVtrxH4fMtxzaI--53" target="wE5hzmVtrxH4fMtxzaI--41" edge="1">
          <mxGeometry relative="1" as="geometry" />
        </mxCell>
        <mxCell id="wE5hzmVtrxH4fMtxzaI--53" value="&lt;font face=&quot;GOST Type B&quot; style=&quot;font-size: 37px;&quot;&gt;&lt;i style=&quot;font-size: 37px;&quot;&gt;Б&lt;/i&gt;&lt;/font&gt;" style="ellipse;whiteSpace=wrap;html=1;aspect=fixed;fontSize=37;" parent="1" vertex="1">
          <mxGeometry x="654.5" y="290" width="50" height="50" as="geometry" />
        </mxCell>
        <mxCell id="X0nSEtPHlRPj0N4h6ZsS-10" style="edgeStyle=orthogonalEdgeStyle;rounded=0;orthogonalLoop=1;jettySize=auto;html=1;entryX=0.5;entryY=0;entryDx=0;entryDy=0;" edge="1" parent="1" source="X0nSEtPHlRPj0N4h6ZsS-2" target="wE5hzmVtrxH4fMtxzaI--6">
          <mxGeometry relative="1" as="geometry" />
        </mxCell>
        <mxCell id="X0nSEtPHlRPj0N4h6ZsS-2" value="&lt;font style=&quot;font-size: 17px;&quot;&gt;Генерация входных даннных&lt;/font&gt;" style="rounded=0;whiteSpace=wrap;html=1;fontFamily=GOST Type B;fontStyle=2;fontSize=17;" vertex="1" parent="1">
          <mxGeometry x="356" y="310" width="120" height="60" as="geometry" />
        </mxCell>
        <mxCell id="X0nSEtPHlRPj0N4h6ZsS-12" value="&lt;font face=&quot;GOST Type B&quot; style=&quot;font-size: 37px;&quot;&gt;&lt;i style=&quot;font-size: 37px;&quot;&gt;А&lt;/i&gt;&lt;/font&gt;" style="ellipse;whiteSpace=wrap;html=1;aspect=fixed;fontSize=37;" vertex="1" parent="1">
          <mxGeometry x="125" y="570" width="50" height="50" as="geometry" />
        </mxCell>
        <mxCell id="X0nSEtPHlRPj0N4h6ZsS-15" style="edgeStyle=orthogonalEdgeStyle;rounded=0;orthogonalLoop=1;jettySize=auto;html=1;entryX=0.5;entryY=0;entryDx=0;entryDy=0;" edge="1" parent="1" source="X0nSEtPHlRPj0N4h6ZsS-13" target="wE5hzmVtrxH4fMtxzaI--5">
          <mxGeometry relative="1" as="geometry" />
        </mxCell>
        <mxCell id="X0nSEtPHlRPj0N4h6ZsS-13" value="&lt;font face=&quot;GOST Type B&quot; style=&quot;font-size: 37px;&quot;&gt;&lt;i style=&quot;font-size: 37px;&quot;&gt;А&lt;/i&gt;&lt;/font&gt;" style="ellipse;whiteSpace=wrap;html=1;aspect=fixed;fontSize=37;" vertex="1" parent="1">
          <mxGeometry x="391" y="140" width="50" height="50" as="geometry" />
        </mxCell>
      </root>
    </mxGraphModel>
  </diagram>
</mxfile>
